# xmcd CD database file
#
# Track frame offsets:
#	150
#	17510
#	28393
#	46718
#	63229
#	80455
#	96318
#	109202
#	124225
#	138100
#	152753
#	168156
#	180375
#	197335
#	207487
#	224084
#	236310
#	253929
#	266922
#	287114
#
# Disc length: 3967 seconds
#
# Revision: 0
# Processed by: cddbd v1.5.2PL0 Copyright (c) Steve Scherf et al.
# Submitted via: ACXtractor (MTCDDB.DLL V2003.12.21)
#
DISCID=200f7d14
DTITLE=Col Thomson - 17th Anniversary Collection
DYEAR=2000
DGENRE=Country
TTITLE0=Keep Movin'
TTITLE1=Why Does the Dingo Wail
TTITLE2=Commanchie
TTITLE3=Australia
TTITLE4=Tom Quilty
TTITLE5=The Darkest Hour
TTITLE6=Tabbarabara
TTITLE7=I Told the Brook
TTITLE8=Sing me Matilda
TTITLE9=Itchy Feet
TTITLE10=Take Care of Yourself
TTITLE11=Hey Good Lookin'
TTITLE12=The Splendour of the Bush
TTITLE13=Mountain Tops on High
TTITLE14=Upon the Alpine Ranges
TTITLE15=Long Black Veil
TTITLE16=No More Shall I Aswer Your Call
TTITLE17=Three Little Head at the Window
TTITLE18=Daddy's Baby Boy
TTITLE19=Country
EXTD=ID3G:   2 YEAR: 2000
EXTT0=
EXTT1=
EXTT2=
EXTT3=
EXTT4=
EXTT5=
EXTT6=
EXTT7=
EXTT8=
EXTT9=
EXTT10=
EXTT11=
EXTT12=
EXTT13=
EXTT14=
EXTT15=
EXTT16=
EXTT17=
EXTT18=
EXTT19=
PLAYORDER=
